<?xml version="1.0" encoding="utf-8"?>
<!-- Generator: Adobe Illustrator 27.8.0, SVG Export Plug-In . SVG Version: 6.00 Build 0)  -->
<svg version="1.1" id="Layer_1" xmlns="http://www.w3.org/2000/svg" xmlns:xlink="http://www.w3.org/1999/xlink" x="0px" y="0px"
	 viewBox="0 0 717 367.2" style="enable-background:new 0 0 717 367.2;" xml:space="preserve">
<style type="text/css">
	.st0{fill:#4D4D4D;}
	.st1{fill:#4D4D4D;stroke:#4D4D4D;stroke-width:1.5;stroke-miterlimit:10;}
	.st2{fill:#EA0707;}
</style>
<g>
	<g>
		<g>
			<path class="st0" d="M687.9,19.3c6.5,0,9.7,3.7,9.7,8.3c0,3.3-1.8,6.6-6.1,7.8l6.4,10.9h-6.3l-5.9-10.5h-2.5v10.5h-5.4V19.3
				H687.9z M687.7,23.8h-4.5v7.9h4.5c3,0,4.4-1.6,4.4-4C692.1,25.3,690.7,23.8,687.7,23.8z"/>
		</g>
		<g>
			<path class="st1" d="M687.9,11.7c11.6,0,21,9.4,21,21s-9.4,21-21,21c-11.6,0-21-9.4-21-21S676.3,11.7,687.9,11.7 M687.9,8.7
				c-13.3,0-24.1,10.8-24.1,24.1s10.8,24.1,24.1,24.1c13.3,0,24.1-10.8,24.1-24.1S701.2,8.7,687.9,8.7L687.9,8.7z"/>
		</g>
	</g>
	<g>
		<g>
			<g>
				<path class="st0" d="M7.6,189.2h32c12.9,0,22.6,2.5,29.1,7.5c6.5,5,9.8,12.6,9.8,23c0,20.6-13,30.9-38.9,30.9H34
					c-0.8,0-1.3,0.1-1.7,0.4c-0.3,0.3-0.5,0.9-0.5,1.7v15.9c0,2.4-1.2,3.6-3.6,3.6H7.6c-2.4,0-3.6-1.2-3.6-3.6v-75.8
					C4,190.3,5.2,189.2,7.6,189.2z M46.9,227.3c2.4-1.4,3.6-4,3.6-7.7c0-2.5-0.6-4.5-1.7-5.8c-1.1-1.3-2.7-2.3-4.7-2.8
					c-2.1-0.5-4.7-0.8-8.1-0.8h-2c-0.8,0-1.3,0.1-1.7,0.4c-0.3,0.3-0.5,0.9-0.5,1.7v14.9c0,0.8,0.2,1.3,0.5,1.7
					c0.3,0.3,0.9,0.5,1.7,0.5h2C40.8,229.4,44.5,228.7,46.9,227.3z"/>
				<path class="st0" d="M94.5,189.2h32c8.8,0,16.2,1,21.9,2.9c5.8,1.9,10.1,5,13,9.1c2.9,4.1,4.3,9.5,4.3,16.1
					c0,5.2-1,9.5-3.1,12.8c-2.1,3.3-5.3,6.1-9.5,8.4l17.2,29.7c0.4,0.6,0.6,1.2,0.6,2c0,1.3-1,1.9-3.1,1.9h-21.2
					c-2,0-3.4-0.3-4.3-0.8c-0.9-0.5-1.8-1.6-2.5-3.1l-16.7-31.5c-0.4-0.9-0.6-1.6-0.6-2c0-0.9,0.9-1.6,2.7-1.9
					c3.6-0.6,6.6-1.8,8.9-3.8c2.3-2,3.4-4.6,3.4-7.8c0-3.6-1.1-6.2-3.3-7.9c-2.2-1.7-5.7-2.5-10.4-2.5h-2.7c-0.8,0-1.3,0.1-1.7,0.4
					c-0.3,0.3-0.5,0.9-0.5,1.7v55.7c0,2.4-1.2,3.6-3.6,3.6H94.5c-2.4,0-3.6-1.2-3.6-3.6v-75.8C90.9,190.3,92.1,189.2,94.5,189.2z"/>
				<path class="st0" d="M182.4,208.2c3.9-6.6,9.3-11.7,16.2-15.3c6.9-3.6,14.8-5.5,23.5-5.5c8.8,0,16.7,1.8,23.7,5.5
					c7,3.6,12.4,8.8,16.2,15.3c3.9,6.6,5.8,14.1,5.8,22.6c0,8.5-1.9,15.9-5.8,22.5c-3.9,6.5-9.3,11.6-16.2,15.2
					c-7,3.6-14.9,5.5-23.7,5.5c-8.8,0-16.7-1.8-23.6-5.5c-6.9-3.6-12.2-8.7-16.1-15.2c-3.9-6.5-5.8-14-5.8-22.5
					C176.6,222.3,178.5,214.8,182.4,208.2z M231,246.6c2.6-1.4,4.7-3.5,6.2-6.2c1.5-2.7,2.3-5.9,2.3-9.7c0-3.7-0.8-7-2.3-9.7
					c-1.5-2.8-3.6-4.9-6.2-6.3c-2.6-1.5-5.6-2.2-8.9-2.2s-6.3,0.7-8.9,2.2c-2.6,1.5-4.6,3.6-6.1,6.3c-1.5,2.8-2.2,6-2.2,9.7
					c0,3.7,0.7,6.9,2.2,9.7c1.5,2.7,3.5,4.8,6.1,6.2c2.6,1.4,5.6,2.1,8.9,2.1S228.4,248.1,231,246.6z"/>
				<path class="st0" d="M284.2,189.2h32c12.9,0,22.6,2.5,29.1,7.5c6.5,5,9.8,12.6,9.8,23c0,20.6-13,30.9-38.9,30.9h-5.6
					c-0.8,0-1.3,0.1-1.7,0.4c-0.3,0.3-0.5,0.9-0.5,1.7v15.9c0,2.4-1.2,3.6-3.6,3.6h-20.7c-2.4,0-3.6-1.2-3.6-3.6v-75.8
					C280.6,190.3,281.8,189.2,284.2,189.2z M323.5,227.3c2.4-1.4,3.6-4,3.6-7.7c0-2.5-0.6-4.5-1.7-5.8c-1.1-1.3-2.7-2.3-4.7-2.8
					c-2.1-0.5-4.7-0.8-8.1-0.8h-2c-0.8,0-1.3,0.1-1.7,0.4c-0.3,0.3-0.5,0.9-0.5,1.7v14.9c0,0.8,0.2,1.3,0.5,1.7
					c0.3,0.3,0.9,0.5,1.7,0.5h2C317.4,229.4,321.1,228.7,323.5,227.3z"/>
				<path class="st0" d="M371.1,189.2h53c2.4,0,3.6,1.2,3.6,3.6v14.2c0,2.4-1.2,3.6-3.6,3.6h-26.5c-0.8,0-1.3,0.1-1.7,0.4
					c-0.3,0.3-0.5,0.9-0.5,1.7v5.5c0,0.8,0.2,1.3,0.5,1.7c0.3,0.3,0.9,0.5,1.7,0.5h22.6c2.4,0,3.6,1.2,3.6,3.6v13.6
					c0,2.4-1.2,3.6-3.6,3.6h-22.6c-0.8,0-1.3,0.1-1.7,0.4c-0.3,0.3-0.5,0.9-0.5,1.7v5.6c0,0.8,0.2,1.3,0.5,1.7
					c0.3,0.3,0.9,0.5,1.7,0.5h26.7c2.4,0,3.6,1.2,3.6,3.6v14.2c0,2.4-1.2,3.6-3.6,3.6h-53.1c-2.4,0-3.6-1.2-3.6-3.6v-75.8
					C367.5,190.3,368.7,189.2,371.1,189.2z"/>
				<path class="st0" d="M444.6,189.2h32c8.8,0,16.2,1,21.9,2.9c5.8,1.9,10.1,5,13,9.1c2.9,4.1,4.3,9.5,4.3,16.1
					c0,5.2-1,9.5-3.1,12.8c-2.1,3.3-5.3,6.1-9.5,8.4l17.2,29.7c0.4,0.6,0.6,1.2,0.6,2c0,1.3-1,1.9-3.1,1.9h-21.2
					c-2,0-3.4-0.3-4.3-0.8c-0.9-0.5-1.8-1.6-2.5-3.1l-16.7-31.5c-0.4-0.9-0.6-1.6-0.6-2c0-0.9,0.9-1.6,2.7-1.9
					c3.6-0.6,6.6-1.8,8.9-3.8c2.3-2,3.4-4.6,3.4-7.8c0-3.6-1.1-6.2-3.3-7.9c-2.2-1.7-5.7-2.5-10.4-2.5h-2.7c-0.8,0-1.3,0.1-1.7,0.4
					c-0.3,0.3-0.5,0.9-0.5,1.7v55.7c0,2.4-1.2,3.6-3.6,3.6h-20.7c-2.4,0-3.6-1.2-3.6-3.6v-75.8C441.1,190.3,442.3,189.2,444.6,189.2
					z"/>
				<path class="st0" d="M546.2,214.2c-0.3-0.3-0.9-0.4-1.7-0.4h-15.6c-2.4,0-3.6-1.2-3.6-3.6v-17.5c0-2.4,1.2-3.6,3.6-3.6h63.4
					c2.4,0,3.6,1.2,3.6,3.6v17.5c0,2.4-1.2,3.6-3.6,3.6h-15.6c-0.8,0-1.3,0.1-1.7,0.4c-0.3,0.3-0.5,0.8-0.5,1.7v52.6
					c0,2.4-1.2,3.6-3.6,3.6h-20.7c-2.4,0-3.6-1.2-3.6-3.6v-52.6C546.6,215.1,546.4,214.5,546.2,214.2z"/>
				<path class="st0" d="M605.2,193.1c-0.5-0.9-0.7-1.6-0.7-2.1c0-1.2,0.9-1.8,2.6-1.8H629c1.7,0,2.9,0.3,3.7,0.8
					c0.8,0.5,1.7,1.6,2.5,3.1l13.4,24.4l13.3-24.4c0.9-1.6,1.7-2.6,2.5-3.1c0.8-0.5,2.1-0.8,3.7-0.8h21.1c1.7,0,2.6,0.6,2.6,1.8
					c0,0.6-0.2,1.3-0.7,2.1L662.5,242v26.5c0,2.4-1.2,3.6-3.6,3.6h-20.7c-2.4,0-3.6-1.2-3.6-3.6v-26L605.2,193.1z"/>
			</g>
		</g>
		<g>
			<path class="st2" d="M90.6,28.9h30.3v139.2H93.9L36.7,86.9v81.2H6.3V28.9h26.9L90.6,112V28.9z"/>
			<path class="st2" d="M313,28.9l27.3,52.2l27.5-52.2h35.1l-47,85.1v54.1h-30.9v-54.1l-47-85.1H313z"/>
		</g>
		<path class="st2" d="M622.8,28.7h-26.9l-54.4,139.2h31.7l8.8-23.2h0.2l10.1-26.1h-0.1l17.1-44l35.9,93.3h31.7L622.8,28.7z"/>
		<g>
			<rect x="601.4" y="132.7" class="st2" width="7.6" height="7.1"/>
			<rect x="611.6" y="132.7" class="st2" width="7.6" height="7.1"/>
			<rect x="601.4" y="142.2" class="st2" width="7.6" height="7.1"/>
			<rect x="611.6" y="142.2" class="st2" width="7.6" height="7.1"/>
		</g>
		<g>
			<g>
				<rect x="240.1" y="141.4" class="st2" width="7.6" height="7.1"/>
				<rect x="250.3" y="141.4" class="st2" width="7.6" height="7.1"/>
				<rect x="240.1" y="150.9" class="st2" width="7.6" height="7.1"/>
				<rect x="250.3" y="150.9" class="st2" width="7.6" height="7.1"/>
			</g>
			<polygon class="st0" points="235,42.8 227,28.9 148.9,146.2 166.1,146.2 			"/>
			<polygon class="st2" points="246,62.2 239.2,50.4 173.6,146.2 188.5,146.2 			"/>
			<polygon class="st0" points="312.7,168.1 289.1,168.1 249,103.2 248.9,103.1 217.2,150.5 205.4,168.1 130.1,168.1 145,150.5 
				194.5,150.5 195.5,149 238,85.4 249.7,68 260.8,85.6 260.8,85.6 			"/>
		</g>
		<path class="st2" d="M473.9,28.9H447l-54.4,139.2h31.7l8.6-22.7h54.7l8.7,22.7H528L473.9,28.9z M443.4,118.7l17.1-44l18.6,48.3
			h-37.3L443.4,118.7L443.4,118.7z"/>
	</g>
	<g>
		<path class="st0" d="M35.6,311.2v32.7h-5.3l-15.4-22.3h-0.3v22.3H8.7v-32.7H14l15.4,22.3h0.3v-22.3H35.6z"/>
		<path class="st0" d="M48.9,344.4c-1.6,0-3-0.3-4.2-0.8c-1.2-0.6-2.2-1.4-2.9-2.5c-0.7-1.1-1.1-2.5-1.1-4.1c0-1.4,0.3-2.5,0.8-3.4
			s1.2-1.6,2.1-2.2c0.9-0.5,1.9-1,3-1.2s2.3-0.5,3.5-0.6c1.4-0.1,2.6-0.3,3.5-0.4s1.5-0.3,2-0.6s0.6-0.7,0.6-1.2v-0.1
			c0-1.2-0.4-2.1-1.1-2.8c-0.7-0.7-1.7-1-3.1-1c-1.4,0-2.5,0.3-3.4,0.9s-1.4,1.3-1.7,2.2l-5.4-0.8c0.4-1.5,1.1-2.7,2.1-3.7
			s2.2-1.8,3.6-2.3c1.4-0.5,3-0.8,4.7-0.8c1.2,0,2.4,0.1,3.5,0.4c1.2,0.3,2.2,0.7,3.2,1.4c1,0.6,1.7,1.5,2.3,2.6s0.9,2.4,0.9,4.1
			v16.4h-5.6v-3.4h-0.2c-0.4,0.7-0.8,1.3-1.5,1.9c-0.6,0.6-1.4,1.1-2.4,1.4C51.2,344.2,50.1,344.4,48.9,344.4z M50.4,340.1
			c1.2,0,2.2-0.2,3-0.7c0.9-0.5,1.5-1.1,2-1.8c0.5-0.8,0.7-1.6,0.7-2.5v-2.9c-0.2,0.1-0.5,0.3-0.9,0.4c-0.4,0.1-0.9,0.2-1.4,0.3
			c-0.5,0.1-1.1,0.2-1.6,0.3c-0.5,0.1-1,0.1-1.4,0.2c-0.9,0.1-1.6,0.3-2.3,0.6s-1.2,0.6-1.6,1.1c-0.4,0.5-0.6,1.1-0.6,1.8
			c0,1.1,0.4,1.9,1.2,2.4C48.2,339.9,49.2,340.1,50.4,340.1z"/>
		<path class="st0" d="M71.2,353.1c-0.8,0-1.5-0.1-2.2-0.2c-0.7-0.1-1.2-0.3-1.6-0.4l1.3-4.5c0.8,0.2,1.6,0.4,2.3,0.4
			c0.7,0,1.2-0.2,1.8-0.6c0.5-0.4,0.9-1.1,1.3-2l0.5-1.3l-8.9-25.1h6.1l5.7,18.5h0.3l5.7-18.5h6.2l-9.8,27.5
			c-0.5,1.3-1.1,2.4-1.8,3.3c-0.8,0.9-1.7,1.6-2.8,2.1C74.1,352.8,72.8,353.1,71.2,353.1z"/>
		<path class="st0" d="M104.4,344.4c-2.5,0-4.6-0.5-6.4-1.5c-1.8-1-3.2-2.5-4.1-4.4c-1-1.9-1.4-4.1-1.4-6.7c0-2.5,0.5-4.7,1.4-6.7
			c1-1.9,2.3-3.4,4.1-4.5c1.7-1.1,3.8-1.6,6.1-1.6c1.5,0,2.9,0.2,4.3,0.7c1.3,0.5,2.5,1.2,3.6,2.2c1,1,1.9,2.3,2.5,3.9
			c0.6,1.6,0.9,3.4,0.9,5.6v1.8H95.2v-3.9h14.6c0-1.1-0.3-2.1-0.7-3c-0.5-0.9-1.1-1.6-2-2.1c-0.8-0.5-1.8-0.8-2.9-0.8
			c-1.2,0-2.2,0.3-3.1,0.9s-1.6,1.3-2.1,2.2c-0.5,0.9-0.7,1.9-0.8,3v3.4c0,1.4,0.3,2.7,0.8,3.7s1.3,1.8,2.2,2.3
			c0.9,0.5,2,0.8,3.3,0.8c0.8,0,1.6-0.1,2.3-0.4c0.7-0.2,1.3-0.6,1.8-1.1c0.5-0.5,0.9-1,1.1-1.7l5.4,0.6c-0.3,1.4-1,2.7-1.9,3.7
			c-1,1.1-2.2,1.9-3.7,2.5C108,344.1,106.3,344.4,104.4,344.4z"/>
		<path class="st0" d="M131.7,343.9v-32.7h12.3c2.5,0,4.6,0.5,6.3,1.4s3,2.2,3.9,3.9s1.3,3.5,1.3,5.6c0,2.1-0.4,4-1.3,5.6
			s-2.2,2.9-3.9,3.8c-1.7,0.9-3.9,1.4-6.4,1.4h-8.1v-4.9h7.3c1.5,0,2.7-0.3,3.6-0.8c0.9-0.5,1.6-1.2,2.1-2.1
			c0.5-0.9,0.7-1.9,0.7-3.1s-0.2-2.2-0.7-3.1c-0.5-0.9-1.2-1.6-2.1-2.1c-0.9-0.5-2.2-0.7-3.6-0.7h-5.4v27.8H131.7z"/>
		<path class="st0" d="M160.4,343.9v-24.5h5.6v4.1h0.3c0.4-1.4,1.2-2.5,2.3-3.3s2.3-1.2,3.7-1.2c0.3,0,0.7,0,1.1,0s0.7,0.1,1,0.1
			v5.3c-0.2-0.1-0.6-0.2-1.2-0.2s-1-0.1-1.5-0.1c-1.1,0-2,0.2-2.8,0.7s-1.5,1.1-2,1.9c-0.5,0.8-0.7,1.7-0.7,2.8v14.4H160.4z"/>
		<path class="st0" d="M188.9,344.4c-2.4,0-4.5-0.5-6.2-1.6s-3.1-2.5-4.1-4.4c-1-1.9-1.4-4.1-1.4-6.6c0-2.5,0.5-4.8,1.4-6.7
			c1-1.9,2.3-3.4,4.1-4.4s3.8-1.6,6.2-1.6c2.4,0,4.5,0.5,6.2,1.6s3.1,2.5,4.1,4.4c1,1.9,1.4,4.1,1.4,6.7c0,2.5-0.5,4.8-1.4,6.6
			c-1,1.9-2.3,3.4-4.1,4.4S191.3,344.4,188.9,344.4z M188.9,339.7c1.3,0,2.4-0.4,3.3-1.1c0.9-0.7,1.5-1.7,2-2.9
			c0.4-1.2,0.6-2.6,0.6-4.1c0-1.5-0.2-2.9-0.6-4.1c-0.4-1.2-1.1-2.2-2-2.9s-2-1.1-3.3-1.1c-1.3,0-2.4,0.4-3.3,1.1s-1.5,1.7-2,2.9
			c-0.4,1.2-0.6,2.6-0.6,4.1c0,1.5,0.2,2.8,0.6,4.1c0.4,1.2,1.1,2.2,2,2.9C186.5,339.4,187.6,339.7,188.9,339.7z"/>
		<path class="st0" d="M205.6,353.1v-33.8h5.7v4.1h0.3c0.3-0.6,0.7-1.2,1.3-1.9s1.3-1.3,2.2-1.7c0.9-0.5,2.1-0.7,3.5-0.7
			c1.9,0,3.6,0.5,5.1,1.4c1.5,1,2.7,2.4,3.6,4.3s1.4,4.2,1.4,6.9c0,2.7-0.4,5-1.3,6.9c-0.9,1.9-2.1,3.3-3.6,4.3
			c-1.5,1-3.2,1.5-5.2,1.5c-1.4,0-2.6-0.2-3.5-0.7c-0.9-0.5-1.7-1-2.2-1.7c-0.6-0.7-1-1.3-1.3-1.9h-0.2v13.1H205.6z M211.2,331.6
			c0,1.6,0.2,3,0.7,4.2c0.5,1.2,1.1,2.1,2,2.8c0.9,0.7,1.9,1,3.1,1c1.3,0,2.3-0.3,3.2-1s1.5-1.6,2-2.8c0.4-1.2,0.7-2.6,0.7-4.1
			c0-1.5-0.2-2.9-0.7-4.1c-0.4-1.2-1.1-2.1-1.9-2.8s-1.9-1-3.2-1c-1.2,0-2.3,0.3-3.1,1c-0.9,0.7-1.5,1.6-2,2.7
			C211.5,328.6,211.2,330,211.2,331.6z"/>
		<path class="st0" d="M244.5,344.4c-2.5,0-4.6-0.5-6.4-1.5c-1.8-1-3.2-2.5-4.1-4.4c-1-1.9-1.4-4.1-1.4-6.7c0-2.5,0.5-4.7,1.4-6.7
			c1-1.9,2.3-3.4,4.1-4.5c1.7-1.1,3.8-1.6,6.1-1.6c1.5,0,2.9,0.2,4.3,0.7c1.3,0.5,2.5,1.2,3.6,2.2c1,1,1.9,2.3,2.5,3.9
			c0.6,1.6,0.9,3.4,0.9,5.6v1.8h-20.1v-3.9h14.6c0-1.1-0.3-2.1-0.7-3c-0.5-0.9-1.1-1.6-2-2.1c-0.8-0.5-1.8-0.8-2.9-0.8
			c-1.2,0-2.2,0.3-3.1,0.9s-1.6,1.3-2.1,2.2c-0.5,0.9-0.7,1.9-0.8,3v3.4c0,1.4,0.3,2.7,0.8,3.7s1.3,1.8,2.2,2.3
			c0.9,0.5,2,0.8,3.3,0.8c0.8,0,1.6-0.1,2.3-0.4c0.7-0.2,1.3-0.6,1.8-1.1c0.5-0.5,0.9-1,1.1-1.7l5.4,0.6c-0.3,1.4-1,2.7-1.9,3.7
			c-1,1.1-2.2,1.9-3.7,2.5C248.1,344.1,246.4,344.4,244.5,344.4z"/>
		<path class="st0" d="M260.3,343.9v-24.5h5.6v4.1h0.3c0.4-1.4,1.2-2.5,2.3-3.3s2.3-1.2,3.7-1.2c0.3,0,0.7,0,1.1,0s0.7,0.1,1,0.1
			v5.3c-0.2-0.1-0.6-0.2-1.2-0.2s-1-0.1-1.5-0.1c-1.1,0-2,0.2-2.8,0.7s-1.5,1.1-2,1.9c-0.5,0.8-0.7,1.7-0.7,2.8v14.4H260.3z"/>
		<path class="st0" d="M290.5,319.3v4.5h-14.1v-4.5H290.5z M279.8,313.5h5.8v23c0,0.8,0.1,1.4,0.4,1.8s0.6,0.7,1,0.8
			c0.4,0.1,0.8,0.2,1.3,0.2c0.4,0,0.7,0,1-0.1c0.3-0.1,0.5-0.1,0.7-0.1l1,4.5c-0.3,0.1-0.7,0.2-1.3,0.4s-1.3,0.2-2.1,0.2
			c-1.4,0-2.8-0.2-3.9-0.7c-1.2-0.5-2.1-1.2-2.8-2.3c-0.7-1-1-2.3-1-3.8V313.5z"/>
		<path class="st0" d="M298.9,353.1c-0.8,0-1.5-0.1-2.2-0.2c-0.7-0.1-1.2-0.3-1.6-0.4l1.3-4.5c0.8,0.2,1.6,0.4,2.3,0.4
			c0.7,0,1.2-0.2,1.8-0.6c0.5-0.4,0.9-1.1,1.3-2l0.5-1.3l-8.9-25.1h6.1l5.7,18.5h0.3l5.7-18.5h6.2l-9.8,27.5
			c-0.5,1.3-1.1,2.4-1.8,3.3c-0.8,0.9-1.7,1.6-2.8,2.1C301.7,352.8,300.4,353.1,298.9,353.1z"/>
		<path class="st0" d="M332.6,343.9v-32.7h5.9v15h0.4l12.8-15h7.2l-12.7,14.7l12.8,18H352l-9.8-14l-3.6,4.3v9.7H332.6z"/>
		<path class="st0" d="M369.9,344.4c-1.6,0-3-0.3-4.2-0.8c-1.2-0.6-2.2-1.4-2.9-2.5c-0.7-1.1-1.1-2.5-1.1-4.1c0-1.4,0.3-2.5,0.8-3.4
			s1.2-1.6,2.1-2.2c0.9-0.5,1.9-1,3-1.2s2.3-0.5,3.5-0.6c1.4-0.1,2.6-0.3,3.5-0.4s1.5-0.3,2-0.6s0.6-0.7,0.6-1.2v-0.1
			c0-1.2-0.4-2.1-1.1-2.8c-0.7-0.7-1.7-1-3.1-1c-1.4,0-2.5,0.3-3.4,0.9c-0.8,0.6-1.4,1.3-1.7,2.2l-5.4-0.8c0.4-1.5,1.1-2.7,2.1-3.7
			c1-1,2.2-1.8,3.6-2.3c1.4-0.5,3-0.8,4.7-0.8c1.2,0,2.4,0.1,3.5,0.4c1.2,0.3,2.2,0.7,3.2,1.4c1,0.6,1.7,1.5,2.3,2.6
			s0.9,2.4,0.9,4.1v16.4h-5.6v-3.4h-0.2c-0.4,0.7-0.8,1.3-1.5,1.9c-0.6,0.6-1.4,1.1-2.4,1.4C372.3,344.2,371.2,344.4,369.9,344.4z
			 M371.4,340.1c1.2,0,2.2-0.2,3-0.7c0.9-0.5,1.5-1.1,2-1.8c0.5-0.8,0.7-1.6,0.7-2.5v-2.9c-0.2,0.1-0.5,0.3-0.9,0.4
			s-0.9,0.2-1.4,0.3c-0.5,0.1-1.1,0.2-1.6,0.3c-0.5,0.1-1,0.1-1.4,0.2c-0.9,0.1-1.6,0.3-2.3,0.6s-1.2,0.6-1.6,1.1
			c-0.4,0.5-0.6,1.1-0.6,1.8c0,1.1,0.4,1.9,1.2,2.4C369.2,339.9,370.2,340.1,371.4,340.1z"/>
		<path class="st0" d="M404.3,343.9H398l11.5-32.7h7.3l11.5,32.7H422l-8.7-26H413L404.3,343.9z M404.5,331h17.3v4.8h-17.3V331z"/>
		<path class="st0" d="M432.4,353.1v-33.8h5.7v4.1h0.3c0.3-0.6,0.7-1.2,1.3-1.9s1.3-1.3,2.2-1.7c0.9-0.5,2.1-0.7,3.5-0.7
			c1.9,0,3.6,0.5,5.1,1.4c1.5,1,2.7,2.4,3.6,4.3s1.3,4.2,1.3,6.9c0,2.7-0.4,5-1.3,6.9c-0.9,1.9-2.1,3.3-3.6,4.3
			c-1.5,1-3.2,1.5-5.2,1.5c-1.4,0-2.6-0.2-3.5-0.7c-0.9-0.5-1.7-1-2.2-1.7c-0.6-0.7-1-1.3-1.3-1.9h-0.2v13.1H432.4z M438.1,331.6
			c0,1.6,0.2,3,0.7,4.2c0.5,1.2,1.1,2.1,2,2.8s1.9,1,3.1,1c1.3,0,2.3-0.3,3.2-1c0.9-0.7,1.5-1.6,2-2.8c0.4-1.2,0.7-2.6,0.7-4.1
			c0-1.5-0.2-2.9-0.7-4.1c-0.4-1.2-1.1-2.1-2-2.8s-1.9-1-3.2-1c-1.2,0-2.3,0.3-3.1,1c-0.9,0.7-1.5,1.6-2,2.7
			C438.3,328.6,438.1,330,438.1,331.6z"/>
		<path class="st0" d="M466.3,329.5v14.4h-5.8v-24.5h5.5v4.2h0.3c0.6-1.4,1.5-2.5,2.7-3.3s2.8-1.2,4.6-1.2c1.7,0,3.2,0.4,4.4,1.1
			c1.3,0.7,2.2,1.8,2.9,3.1c0.7,1.4,1,3,1,5v15.6h-5.8v-14.7c0-1.6-0.4-2.9-1.3-3.9c-0.8-0.9-2-1.4-3.5-1.4c-1,0-1.9,0.2-2.7,0.7
			c-0.8,0.4-1.4,1.1-1.8,1.9S466.3,328.3,466.3,329.5z"/>
		<path class="st0" d="M495,344.4c-1.6,0-3-0.3-4.2-0.8c-1.2-0.6-2.2-1.4-2.9-2.5c-0.7-1.1-1.1-2.5-1.1-4.1c0-1.4,0.3-2.5,0.8-3.4
			s1.2-1.6,2.1-2.2c0.9-0.5,1.9-1,3-1.2s2.3-0.5,3.5-0.6c1.4-0.1,2.6-0.3,3.5-0.4s1.5-0.3,2-0.6s0.6-0.7,0.6-1.2v-0.1
			c0-1.2-0.4-2.1-1.1-2.8c-0.7-0.7-1.7-1-3.1-1c-1.4,0-2.5,0.3-3.4,0.9c-0.8,0.6-1.4,1.3-1.7,2.2l-5.4-0.8c0.4-1.5,1.1-2.7,2.1-3.7
			c1-1,2.2-1.8,3.6-2.3c1.4-0.5,3-0.8,4.7-0.8c1.2,0,2.4,0.1,3.5,0.4c1.2,0.3,2.2,0.7,3.2,1.4c1,0.6,1.7,1.5,2.3,2.6
			s0.9,2.4,0.9,4.1v16.4h-5.6v-3.4h-0.2c-0.4,0.7-0.8,1.3-1.5,1.9c-0.6,0.6-1.4,1.1-2.4,1.4C497.4,344.2,496.3,344.4,495,344.4z
			 M496.5,340.1c1.2,0,2.2-0.2,3-0.7c0.9-0.5,1.5-1.1,2-1.8c0.5-0.8,0.7-1.6,0.7-2.5v-2.9c-0.2,0.1-0.5,0.3-0.9,0.4
			s-0.9,0.2-1.4,0.3c-0.5,0.1-1.1,0.2-1.6,0.3c-0.5,0.1-1,0.1-1.4,0.2c-0.9,0.1-1.6,0.3-2.3,0.6s-1.2,0.6-1.6,1.1
			c-0.4,0.5-0.6,1.1-0.6,1.8c0,1.1,0.4,1.9,1.2,2.4C494.4,339.9,495.3,340.1,496.5,340.1z"/>
		<path class="st0" d="M529.5,343.9h-6.3l11.5-32.7h7.3l11.5,32.7h-6.3l-8.7-26h-0.3L529.5,343.9z M529.7,331h17.3v4.8h-17.3V331z"
			/>
		<path class="st0" d="M566.7,344.3c-1.9,0-3.7-0.5-5.2-1.5c-1.5-1-2.7-2.4-3.6-4.3c-0.9-1.9-1.3-4.2-1.3-6.9c0-2.7,0.5-5,1.4-6.9
			c0.9-1.9,2.1-3.3,3.7-4.3s3.2-1.4,5.1-1.4c1.4,0,2.6,0.2,3.5,0.7c0.9,0.5,1.7,1.1,2.2,1.7s1,1.3,1.3,1.9h0.2v-12.2h5.8v32.7h-5.7
			V340h-0.4c-0.3,0.6-0.7,1.2-1.3,1.9c-0.6,0.7-1.3,1.2-2.2,1.7C569.3,344.1,568.1,344.3,566.7,344.3z M568.3,339.6
			c1.2,0,2.3-0.3,3.1-1c0.9-0.7,1.5-1.6,2-2.8c0.4-1.2,0.7-2.6,0.7-4.2c0-1.6-0.2-3-0.7-4.1c-0.4-1.2-1.1-2.1-2-2.7
			c-0.9-0.6-1.9-1-3.2-1c-1.3,0-2.4,0.3-3.2,1s-1.5,1.6-1.9,2.8c-0.4,1.2-0.7,2.5-0.7,4.1c0,1.5,0.2,2.9,0.7,4.1
			c0.4,1.2,1.1,2.1,2,2.8S567,339.6,568.3,339.6z"/>
		<path class="st0" d="M607.9,319.3l-8.7,24.5h-6.4l-8.7-24.5h6.2l5.6,18.2h0.3l5.7-18.2H607.9z"/>
		<path class="st0" d="M614.8,315.8c-0.9,0-1.7-0.3-2.4-0.9s-1-1.4-1-2.2c0-0.9,0.3-1.6,1-2.2s1.4-0.9,2.4-0.9
			c0.9,0,1.7,0.3,2.4,0.9c0.7,0.6,1,1.4,1,2.2c0,0.9-0.3,1.6-1,2.2C616.5,315.5,615.7,315.8,614.8,315.8z M611.9,343.9v-24.5h5.8
			v24.5H611.9z"/>
		<path class="st0" d="M643,325.8l-5.3,0.6c-0.1-0.5-0.4-1-0.8-1.5c-0.4-0.5-0.9-0.8-1.5-1.1c-0.6-0.3-1.4-0.4-2.3-0.4
			c-1.2,0-2.2,0.3-3,0.8c-0.8,0.5-1.2,1.2-1.2,2c0,0.7,0.3,1.3,0.8,1.7s1.4,0.8,2.7,1.1l4.2,0.9c2.3,0.5,4.1,1.3,5.2,2.4
			c1.1,1.1,1.7,2.5,1.7,4.3c0,1.5-0.5,2.9-1.3,4.1c-0.9,1.2-2.1,2.1-3.7,2.8s-3.4,1-5.4,1c-3,0-5.4-0.6-7.3-1.9
			c-1.8-1.3-2.9-3-3.3-5.3l5.6-0.5c0.3,1.1,0.8,1.9,1.6,2.5c0.8,0.6,1.9,0.8,3.2,0.8c1.4,0,2.5-0.3,3.3-0.8c0.8-0.6,1.3-1.3,1.3-2.1
			c0-0.7-0.3-1.3-0.8-1.7s-1.4-0.8-2.5-1.1l-4.2-0.9c-2.4-0.5-4.1-1.3-5.2-2.5c-1.1-1.2-1.7-2.6-1.7-4.4c0-1.5,0.4-2.8,1.2-3.9
			c0.8-1.1,2-2,3.5-2.6c1.5-0.6,3.2-0.9,5.2-0.9c2.9,0,5.1,0.6,6.8,1.8C641.6,322.1,642.6,323.7,643,325.8z"/>
		<path class="st0" d="M659,344.4c-2.4,0-4.5-0.5-6.2-1.6s-3.1-2.5-4.1-4.4s-1.4-4.1-1.4-6.6c0-2.5,0.5-4.8,1.4-6.7s2.3-3.4,4.1-4.4
			s3.8-1.6,6.2-1.6c2.4,0,4.5,0.5,6.2,1.6s3.1,2.5,4.1,4.4c1,1.9,1.4,4.1,1.4,6.7c0,2.5-0.5,4.8-1.4,6.6c-1,1.9-2.3,3.4-4.1,4.4
			S661.4,344.4,659,344.4z M659,339.7c1.3,0,2.4-0.4,3.3-1.1c0.9-0.7,1.5-1.7,2-2.9c0.4-1.2,0.6-2.6,0.6-4.1c0-1.5-0.2-2.9-0.6-4.1
			c-0.4-1.2-1.1-2.2-2-2.9c-0.9-0.7-2-1.1-3.3-1.1c-1.3,0-2.4,0.4-3.3,1.1s-1.5,1.7-2,2.9c-0.4,1.2-0.6,2.6-0.6,4.1
			c0,1.5,0.2,2.8,0.6,4.1c0.4,1.2,1.1,2.2,2,2.9C656.6,339.4,657.7,339.7,659,339.7z"/>
		<path class="st0" d="M675.6,343.9v-24.5h5.6v4.1h0.3c0.4-1.4,1.2-2.5,2.3-3.3s2.3-1.2,3.7-1.2c0.3,0,0.7,0,1.1,0s0.7,0.1,1,0.1
			v5.3c-0.2-0.1-0.6-0.2-1.2-0.2s-1-0.1-1.5-0.1c-1.1,0-2,0.2-2.8,0.7s-1.5,1.1-2,1.9c-0.5,0.8-0.7,1.7-0.7,2.8v14.4H675.6z"/>
	</g>
</g>
</svg>
